{
    "asset" : {
        "generator" : "Khronos glTF Blender I/O v1.6.16",
        "version" : "2.0"
    },
    "scene" : 0,
    "scenes" : [
        {
            "name" : "Scene",
            "nodes" : [
                0
            ]
        }
    ],
    "nodes" : [
        {
            "mesh" : 0,
            "name" : "car_normal_yellow01"
        }
    ],
    "materials" : [
        {
            "doubleSided" : true,
            "name" : "Lights_Mat.001",
            "pbrMetallicRoughness" : {
                "baseColorTexture" : {
                    "index" : 0
                },
                "metallicFactor" : 0,
                "roughnessFactor" : 0.5
            }
        },
        {
            "doubleSided" : true,
            "name" : "ColorVar4_Material.001",
            "pbrMetallicRoughness" : {
                "baseColorTexture" : {
                    "index" : 1
                },
                "metallicFactor" : 0,
                "roughnessFactor" : 0.690034806728363
            }
        },
        {
            "doubleSided" : true,
            "name" : "ColorVar1_Material.001",
            "pbrMetallicRoughness" : {
                "baseColorTexture" : {
                    "index" : 2
                },
                "metallicFactor" : 0,
                "roughnessFactor" : 0.5
            }
        }
    ],
    "meshes" : [
        {
            "name" : "ARCADE_UVP.011",
            "primitives" : [
                {
                    "attributes" : {
                        "POSITION" : 0,
                        "NORMAL" : 1,
                        "TEXCOORD_0" : 2
                    },
                    "indices" : 3,
                    "material" : 0
                },
                {
                    "attributes" : {
                        "POSITION" : 4,
                        "NORMAL" : 5,
                        "TEXCOORD_0" : 6
                    },
                    "indices" : 7,
                    "material" : 1
                },
                {
                    "attributes" : {
                        "POSITION" : 8,
                        "NORMAL" : 9,
                        "TEXCOORD_0" : 10
                    },
                    "indices" : 11,
                    "material" : 2
                }
            ]
        }
    ],
    "textures" : [
        {
            "sampler" : 0,
            "source" : 0
        },
        {
            "sampler" : 0,
            "source" : 1
        },
        {
            "sampler" : 0,
            "source" : 2
        }
    ],
    "images" : [
        {
            "mimeType" : "image/png",
            "name" : "LightsTextureAtlas",
            "uri" : "textures/LightsTextureAtlas.png"
        },
        {
            "mimeType" : "image/png",
            "name" : "ColorVar4_Texture",
            "uri" : "textures/ColorVar4_Texture.png"
        },
        {
            "mimeType" : "image/png",
            "name" : "ColorVar1_Texture",
            "uri" : "textures/ColorVar1_Texture.png"
        }
    ],
    "accessors" : [
        {
            "bufferView" : 0,
            "componentType" : 5126,
            "count" : 54,
            "max" : [
                2.1821749210357666,
                0.7477928400039673,
                0.9004337787628174
            ],
            "min" : [
                -2.1154377460479736,
                -0.8156918287277222,
                0.5967891812324524
            ],
            "type" : "VEC3"
        },
        {
            "bufferView" : 1,
            "componentType" : 5126,
            "count" : 54,
            "type" : "VEC3"
        },
        {
            "bufferView" : 2,
            "componentType" : 5126,
            "count" : 54,
            "type" : "VEC2"
        },
        {
            "bufferView" : 3,
            "componentType" : 5123,
            "count" : 162,
            "type" : "SCALAR"
        },
        {
            "bufferView" : 4,
            "componentType" : 5126,
            "count" : 2212,
            "max" : [
                2.3394644260406494,
                0.9467587471008301,
                1.4141108989715576
            ],
            "min" : [
                -2.240178346633911,
                -1.0049264430999756,
                0.17314599454402924
            ],
            "type" : "VEC3"
        },
        {
            "bufferView" : 5,
            "componentType" : 5126,
            "count" : 2212,
            "type" : "VEC3"
        },
        {
            "bufferView" : 6,
            "componentType" : 5126,
            "count" : 2212,
            "type" : "VEC2"
        },
        {
            "bufferView" : 7,
            "componentType" : 5123,
            "count" : 5580,
            "type" : "SCALAR"
        },
        {
            "bufferView" : 8,
            "componentType" : 5126,
            "count" : 3044,
            "max" : [
                1.8755040168762207,
                0.8905385732650757,
                0.673966646194458
            ],
            "min" : [
                -1.5815320014953613,
                -0.9391118288040161,
                0.00022913918655831367
            ],
            "type" : "VEC3"
        },
        {
            "bufferView" : 9,
            "componentType" : 5126,
            "count" : 3044,
            "type" : "VEC3"
        },
        {
            "bufferView" : 10,
            "componentType" : 5126,
            "count" : 3044,
            "type" : "VEC2"
        },
        {
            "bufferView" : 11,
            "componentType" : 5123,
            "count" : 4908,
            "type" : "SCALAR"
        }
    ],
    "bufferViews" : [
        {
            "buffer" : 0,
            "byteLength" : 648,
            "byteOffset" : 0
        },
        {
            "buffer" : 0,
            "byteLength" : 648,
            "byteOffset" : 648
        },
        {
            "buffer" : 0,
            "byteLength" : 432,
            "byteOffset" : 1296
        },
        {
            "buffer" : 0,
            "byteLength" : 324,
            "byteOffset" : 1728
        },
        {
            "buffer" : 0,
            "byteLength" : 26544,
            "byteOffset" : 2052
        },
        {
            "buffer" : 0,
            "byteLength" : 26544,
            "byteOffset" : 28596
        },
        {
            "buffer" : 0,
            "byteLength" : 17696,
            "byteOffset" : 55140
        },
        {
            "buffer" : 0,
            "byteLength" : 11160,
            "byteOffset" : 72836
        },
        {
            "buffer" : 0,
            "byteLength" : 36528,
            "byteOffset" : 83996
        },
        {
            "buffer" : 0,
            "byteLength" : 36528,
            "byteOffset" : 120524
        },
        {
            "buffer" : 0,
            "byteLength" : 24352,
            "byteOffset" : 157052
        },
        {
            "buffer" : 0,
            "byteLength" : 9816,
            "byteOffset" : 181404
        }
    ],
    "samplers" : [
        {
            "magFilter" : 9729,
            "minFilter" : 9987
        }
    ],
    "buffers" : [
        {
            "byteLength" : 191220,
            "uri" : "car_normal_yellow01.bin"
        }
    ]
}
