{
    "asset" : {
        "generator" : "Khronos glTF Blender I/O v1.6.16",
        "version" : "2.0"
    },
    "scene" : 0,
    "scenes" : [
        {
            "name" : "Scene",
            "nodes" : [
                0
            ]
        }
    ],
    "nodes" : [
        {
            "mesh" : 0,
            "name" : "car_super_black"
        }
    ],
    "materials" : [
        {
            "doubleSided" : true,
            "name" : "ColorVar3_Material.001",
            "pbrMetallicRoughness" : {
                "baseColorTexture" : {
                    "index" : 0
                },
                "metallicFactor" : 0,
                "roughnessFactor" : 0.690034806728363
            }
        },
        {
            "doubleSided" : true,
            "name" : "Lights_Mat.001",
            "pbrMetallicRoughness" : {
                "baseColorTexture" : {
                    "index" : 1
                },
                "metallicFactor" : 0,
                "roughnessFactor" : 0.5
            }
        },
        {
            "doubleSided" : true,
            "name" : "ColorVar1_Material.001",
            "pbrMetallicRoughness" : {
                "baseColorTexture" : {
                    "index" : 2
                },
                "metallicFactor" : 0,
                "roughnessFactor" : 0.5
            }
        }
    ],
    "meshes" : [
        {
            "name" : "ARCADE_UVP.010",
            "primitives" : [
                {
                    "attributes" : {
                        "POSITION" : 0,
                        "NORMAL" : 1,
                        "TEXCOORD_0" : 2
                    },
                    "indices" : 3,
                    "material" : 0
                },
                {
                    "attributes" : {
                        "POSITION" : 4,
                        "NORMAL" : 5,
                        "TEXCOORD_0" : 6
                    },
                    "indices" : 7,
                    "material" : 1
                },
                {
                    "attributes" : {
                        "POSITION" : 8,
                        "NORMAL" : 9,
                        "TEXCOORD_0" : 10
                    },
                    "indices" : 11,
                    "material" : 2
                }
            ]
        }
    ],
    "textures" : [
        {
            "sampler" : 0,
            "source" : 0
        },
        {
            "sampler" : 0,
            "source" : 1
        },
        {
            "sampler" : 0,
            "source" : 2
        }
    ],
    "images" : [
        {
            "mimeType" : "image/png",
            "name" : "ColorVar3_Texture",
            "uri" : "textures/ColorVar3_Texture.png"
        },
        {
            "mimeType" : "image/png",
            "name" : "LightsTextureAtlas",
            "uri" : "textures/LightsTextureAtlas.png"
        },
        {
            "mimeType" : "image/png",
            "name" : "ColorVar1_Texture",
            "uri" : "textures/ColorVar1_Texture.png"
        }
    ],
    "accessors" : [
        {
            "bufferView" : 0,
            "componentType" : 5126,
            "count" : 2204,
            "max" : [
                2.5510096549987793,
                1.0206913948059082,
                1.218132495880127
            ],
            "min" : [
                -2.295992136001587,
                -1.0577936172485352,
                0.1516694724559784
            ],
            "type" : "VEC3"
        },
        {
            "bufferView" : 1,
            "componentType" : 5126,
            "count" : 2204,
            "type" : "VEC3"
        },
        {
            "bufferView" : 2,
            "componentType" : 5126,
            "count" : 2204,
            "type" : "VEC2"
        },
        {
            "bufferView" : 3,
            "componentType" : 5123,
            "count" : 5088,
            "type" : "SCALAR"
        },
        {
            "bufferView" : 4,
            "componentType" : 5126,
            "count" : 136,
            "max" : [
                2.3657240867614746,
                0.7724074125289917,
                0.7021877765655518
            ],
            "min" : [
                -2.283170461654663,
                -0.8155494928359985,
                0.514427661895752
            ],
            "type" : "VEC3"
        },
        {
            "bufferView" : 5,
            "componentType" : 5126,
            "count" : 136,
            "type" : "VEC3"
        },
        {
            "bufferView" : 6,
            "componentType" : 5126,
            "count" : 136,
            "type" : "VEC2"
        },
        {
            "bufferView" : 7,
            "componentType" : 5123,
            "count" : 216,
            "type" : "SCALAR"
        },
        {
            "bufferView" : 8,
            "componentType" : 5126,
            "count" : 3940,
            "max" : [
                1.7143311500549316,
                0.9827817678451538,
                0.7086997032165527
            ],
            "min" : [
                -1.6154608726501465,
                -1.0049748420715332,
                3.138031388516538e-05
            ],
            "type" : "VEC3"
        },
        {
            "bufferView" : 9,
            "componentType" : 5126,
            "count" : 3940,
            "type" : "VEC3"
        },
        {
            "bufferView" : 10,
            "componentType" : 5126,
            "count" : 3940,
            "type" : "VEC2"
        },
        {
            "bufferView" : 11,
            "componentType" : 5123,
            "count" : 6960,
            "type" : "SCALAR"
        }
    ],
    "bufferViews" : [
        {
            "buffer" : 0,
            "byteLength" : 26448,
            "byteOffset" : 0
        },
        {
            "buffer" : 0,
            "byteLength" : 26448,
            "byteOffset" : 26448
        },
        {
            "buffer" : 0,
            "byteLength" : 17632,
            "byteOffset" : 52896
        },
        {
            "buffer" : 0,
            "byteLength" : 10176,
            "byteOffset" : 70528
        },
        {
            "buffer" : 0,
            "byteLength" : 1632,
            "byteOffset" : 80704
        },
        {
            "buffer" : 0,
            "byteLength" : 1632,
            "byteOffset" : 82336
        },
        {
            "buffer" : 0,
            "byteLength" : 1088,
            "byteOffset" : 83968
        },
        {
            "buffer" : 0,
            "byteLength" : 432,
            "byteOffset" : 85056
        },
        {
            "buffer" : 0,
            "byteLength" : 47280,
            "byteOffset" : 85488
        },
        {
            "buffer" : 0,
            "byteLength" : 47280,
            "byteOffset" : 132768
        },
        {
            "buffer" : 0,
            "byteLength" : 31520,
            "byteOffset" : 180048
        },
        {
            "buffer" : 0,
            "byteLength" : 13920,
            "byteOffset" : 211568
        }
    ],
    "samplers" : [
        {
            "magFilter" : 9729,
            "minFilter" : 9987
        }
    ],
    "buffers" : [
        {
            "byteLength" : 225488,
            "uri" : "car_super_black.bin"
        }
    ]
}
