{
    "asset" : {
        "generator" : "Khronos glTF Blender I/O v1.6.16",
        "version" : "2.0"
    },
    "scene" : 0,
    "scenes" : [
        {
            "name" : "Scene",
            "nodes" : [
                0
            ]
        }
    ],
    "nodes" : [
        {
            "mesh" : 0,
            "name" : "car_normal_darkgreen"
        }
    ],
    "materials" : [
        {
            "doubleSided" : true,
            "name" : "ColorVar3_Material.001",
            "pbrMetallicRoughness" : {
                "baseColorTexture" : {
                    "index" : 0
                },
                "metallicFactor" : 0,
                "roughnessFactor" : 0.690034806728363
            }
        },
        {
            "doubleSided" : true,
            "name" : "Lights_Mat.001",
            "pbrMetallicRoughness" : {
                "baseColorTexture" : {
                    "index" : 1
                },
                "metallicFactor" : 0,
                "roughnessFactor" : 0.5
            }
        },
        {
            "doubleSided" : true,
            "name" : "ColorVar1_Material.001",
            "pbrMetallicRoughness" : {
                "baseColorTexture" : {
                    "index" : 2
                },
                "metallicFactor" : 0,
                "roughnessFactor" : 0.5
            }
        }
    ],
    "meshes" : [
        {
            "name" : "ARCADE_UVP.013",
            "primitives" : [
                {
                    "attributes" : {
                        "POSITION" : 0,
                        "NORMAL" : 1,
                        "TEXCOORD_0" : 2
                    },
                    "indices" : 3,
                    "material" : 0
                },
                {
                    "attributes" : {
                        "POSITION" : 4,
                        "NORMAL" : 5,
                        "TEXCOORD_0" : 6
                    },
                    "indices" : 7,
                    "material" : 1
                },
                {
                    "attributes" : {
                        "POSITION" : 8,
                        "NORMAL" : 9,
                        "TEXCOORD_0" : 10
                    },
                    "indices" : 11,
                    "material" : 2
                }
            ]
        }
    ],
    "textures" : [
        {
            "sampler" : 0,
            "source" : 0
        },
        {
            "sampler" : 0,
            "source" : 1
        },
        {
            "sampler" : 0,
            "source" : 2
        }
    ],
    "images" : [
        {
            "mimeType" : "image/png",
            "name" : "ColorVar3_Texture",
            "uri" : "textures/ColorVar3_Texture.png"
        },
        {
            "mimeType" : "image/png",
            "name" : "LightsTextureAtlas",
            "uri" : "textures/LightsTextureAtlas.png"
        },
        {
            "mimeType" : "image/png",
            "name" : "ColorVar1_Texture",
            "uri" : "textures/ColorVar1_Texture.png"
        }
    ],
    "accessors" : [
        {
            "bufferView" : 0,
            "componentType" : 5126,
            "count" : 2846,
            "max" : [
                2.393350839614868,
                0.9768469333648682,
                1.4497960805892944
            ],
            "min" : [
                -2.4981932640075684,
                -1.062291145324707,
                0.18261919915676117
            ],
            "type" : "VEC3"
        },
        {
            "bufferView" : 1,
            "componentType" : 5126,
            "count" : 2846,
            "type" : "VEC3"
        },
        {
            "bufferView" : 2,
            "componentType" : 5126,
            "count" : 2846,
            "type" : "VEC2"
        },
        {
            "bufferView" : 3,
            "componentType" : 5123,
            "count" : 7206,
            "type" : "SCALAR"
        },
        {
            "bufferView" : 4,
            "componentType" : 5126,
            "count" : 206,
            "max" : [
                2.192955493927002,
                0.7335693836212158,
                0.9599259495735168
            ],
            "min" : [
                -2.3732192516326904,
                -0.8291387557983398,
                0.670863926410675
            ],
            "type" : "VEC3"
        },
        {
            "bufferView" : 5,
            "componentType" : 5126,
            "count" : 206,
            "type" : "VEC3"
        },
        {
            "bufferView" : 6,
            "componentType" : 5126,
            "count" : 206,
            "type" : "VEC2"
        },
        {
            "bufferView" : 7,
            "componentType" : 5123,
            "count" : 522,
            "type" : "SCALAR"
        },
        {
            "bufferView" : 8,
            "componentType" : 5126,
            "count" : 3044,
            "max" : [
                1.8315883874893188,
                0.9395965337753296,
                0.7472854256629944
            ],
            "min" : [
                -1.703182339668274,
                -1.0134093761444092,
                0.0002991932851728052
            ],
            "type" : "VEC3"
        },
        {
            "bufferView" : 9,
            "componentType" : 5126,
            "count" : 3044,
            "type" : "VEC3"
        },
        {
            "bufferView" : 10,
            "componentType" : 5126,
            "count" : 3044,
            "type" : "VEC2"
        },
        {
            "bufferView" : 11,
            "componentType" : 5123,
            "count" : 4908,
            "type" : "SCALAR"
        }
    ],
    "bufferViews" : [
        {
            "buffer" : 0,
            "byteLength" : 34152,
            "byteOffset" : 0
        },
        {
            "buffer" : 0,
            "byteLength" : 34152,
            "byteOffset" : 34152
        },
        {
            "buffer" : 0,
            "byteLength" : 22768,
            "byteOffset" : 68304
        },
        {
            "buffer" : 0,
            "byteLength" : 14412,
            "byteOffset" : 91072
        },
        {
            "buffer" : 0,
            "byteLength" : 2472,
            "byteOffset" : 105484
        },
        {
            "buffer" : 0,
            "byteLength" : 2472,
            "byteOffset" : 107956
        },
        {
            "buffer" : 0,
            "byteLength" : 1648,
            "byteOffset" : 110428
        },
        {
            "buffer" : 0,
            "byteLength" : 1044,
            "byteOffset" : 112076
        },
        {
            "buffer" : 0,
            "byteLength" : 36528,
            "byteOffset" : 113120
        },
        {
            "buffer" : 0,
            "byteLength" : 36528,
            "byteOffset" : 149648
        },
        {
            "buffer" : 0,
            "byteLength" : 24352,
            "byteOffset" : 186176
        },
        {
            "buffer" : 0,
            "byteLength" : 9816,
            "byteOffset" : 210528
        }
    ],
    "samplers" : [
        {
            "magFilter" : 9729,
            "minFilter" : 9987
        }
    ],
    "buffers" : [
        {
            "byteLength" : 220344,
            "uri" : "car_normal_darkgreen.bin"
        }
    ]
}
