{
    "asset" : {
        "generator" : "Khronos glTF Blender I/O v1.6.16",
        "version" : "2.0"
    },
    "scene" : 0,
    "scenes" : [
        {
            "name" : "Scene",
            "nodes" : [
                0
            ]
        }
    ],
    "nodes" : [
        {
            "mesh" : 0,
            "name" : "car_police_black"
        }
    ],
    "materials" : [
        {
            "doubleSided" : true,
            "name" : "Lights_Mat.001",
            "pbrMetallicRoughness" : {
                "baseColorTexture" : {
                    "index" : 0
                },
                "metallicFactor" : 0,
                "roughnessFactor" : 0.5
            }
        },
        {
            "doubleSided" : true,
            "name" : "ColorVar1_Material.001",
            "pbrMetallicRoughness" : {
                "baseColorTexture" : {
                    "index" : 1
                },
                "metallicFactor" : 0,
                "roughnessFactor" : 0.5
            }
        }
    ],
    "meshes" : [
        {
            "name" : "ARCADE_UVP.007",
            "primitives" : [
                {
                    "attributes" : {
                        "POSITION" : 0,
                        "NORMAL" : 1,
                        "TEXCOORD_0" : 2
                    },
                    "indices" : 3,
                    "material" : 0
                },
                {
                    "attributes" : {
                        "POSITION" : 4,
                        "NORMAL" : 5,
                        "TEXCOORD_0" : 6
                    },
                    "indices" : 7,
                    "material" : 1
                }
            ]
        }
    ],
    "textures" : [
        {
            "sampler" : 0,
            "source" : 0
        },
        {
            "sampler" : 0,
            "source" : 1
        }
    ],
    "images" : [
        {
            "mimeType" : "image/png",
            "name" : "LightsTextureAtlas",
            "uri" : "textures/LightsTextureAtlas.png"
        },
        {
            "mimeType" : "image/png",
            "name" : "ColorVar1_Texture",
            "uri" : "textures/ColorVar1_Texture.png"
        }
    ],
    "accessors" : [
        {
            "bufferView" : 0,
            "componentType" : 5126,
            "count" : 242,
            "max" : [
                2.271819591522217,
                0.7893657088279724,
                1.544419765472412
            ],
            "min" : [
                -2.2943689823150635,
                -0.773342490196228,
                0.6708713173866272
            ],
            "type" : "VEC3"
        },
        {
            "bufferView" : 1,
            "componentType" : 5126,
            "count" : 242,
            "type" : "VEC3"
        },
        {
            "bufferView" : 2,
            "componentType" : 5126,
            "count" : 242,
            "type" : "VEC2"
        },
        {
            "bufferView" : 3,
            "componentType" : 5123,
            "count" : 606,
            "type" : "SCALAR"
        },
        {
            "bufferView" : 4,
            "componentType" : 5126,
            "count" : 6646,
            "max" : [
                2.6511147022247314,
                1.032667636871338,
                1.5547027587890625
            ],
            "min" : [
                -2.4193453788757324,
                -1.006472110748291,
                0.00030659206095151603
            ],
            "type" : "VEC3"
        },
        {
            "bufferView" : 5,
            "componentType" : 5126,
            "count" : 6646,
            "type" : "VEC3"
        },
        {
            "bufferView" : 6,
            "componentType" : 5126,
            "count" : 6646,
            "type" : "VEC2"
        },
        {
            "bufferView" : 7,
            "componentType" : 5123,
            "count" : 13866,
            "type" : "SCALAR"
        }
    ],
    "bufferViews" : [
        {
            "buffer" : 0,
            "byteLength" : 2904,
            "byteOffset" : 0
        },
        {
            "buffer" : 0,
            "byteLength" : 2904,
            "byteOffset" : 2904
        },
        {
            "buffer" : 0,
            "byteLength" : 1936,
            "byteOffset" : 5808
        },
        {
            "buffer" : 0,
            "byteLength" : 1212,
            "byteOffset" : 7744
        },
        {
            "buffer" : 0,
            "byteLength" : 79752,
            "byteOffset" : 8956
        },
        {
            "buffer" : 0,
            "byteLength" : 79752,
            "byteOffset" : 88708
        },
        {
            "buffer" : 0,
            "byteLength" : 53168,
            "byteOffset" : 168460
        },
        {
            "buffer" : 0,
            "byteLength" : 27732,
            "byteOffset" : 221628
        }
    ],
    "samplers" : [
        {
            "magFilter" : 9729,
            "minFilter" : 9987
        }
    ],
    "buffers" : [
        {
            "byteLength" : 249360,
            "uri" : "car_police_black.bin"
        }
    ]
}
